<?xml version="1.0" standalone="no"?>
<!DOCTYPE svg PUBLIC "-//W3C//DTD SVG 20010904//EN"
 "http://www.w3.org/TR/2001/REC-SVG-20010904/DTD/svg10.dtd">
<svg version="1.0" xmlns="http://www.w3.org/2000/svg"
 width="591.000000pt" height="422.000000pt" viewBox="0 0 591.000000 422.000000"
 preserveAspectRatio="xMidYMid meet">

<g transform="translate(0.000000,422.000000) scale(0.100000,-0.100000)"
fill="#000000" stroke="none">
<path d="M1595 3377 c-29 -29 -63 -79 -78 -110 -18 -41 -32 -58 -50 -62 -28
-7 -37 -26 -62 -130 -9 -38 -23 -82 -31 -97 -20 -36 -1 -46 28 -13 12 14 32
25 46 25 23 0 24 -2 17 -50 -8 -61 3 -64 40 -10 27 39 45 51 45 29 0 -6 -20
-40 -45 -75 -48 -67 -54 -84 -30 -84 21 0 142 120 197 195 24 34 71 94 104
135 34 41 69 90 78 107 16 33 16 33 -19 72 -53 58 -139 121 -165 121 -16 0
-42 -19 -75 -53z"/>
<path d="M4716 3357 c-11 -17 -67 -115 -126 -217 -58 -102 -130 -224 -158
-273 -101 -171 -105 -180 -107 -296 -2 -95 0 -108 22 -139 44 -65 162 -103
201 -64 9 9 41 63 71 120 30 57 62 107 72 112 16 9 143 23 330 36 72 5 87 4
92 -9 5 -14 -146 -326 -245 -507 -20 -36 -84 -159 -144 -275 -59 -115 -132
-255 -161 -310 -65 -123 -78 -147 -188 -360 -48 -93 -101 -194 -117 -224 -38
-68 -98 -216 -98 -241 0 -28 15 -32 35 -10 25 28 30 25 43 -18 11 -37 16 -40
105 -75 177 -70 183 -70 249 32 72 110 89 154 77 189 -9 26 -6 39 17 89 15 32
31 59 36 61 4 2 8 9 8 15 0 15 77 164 175 343 12 22 30 66 39 97 9 31 21 59
27 62 13 8 59 108 59 128 0 41 185 423 227 468 13 14 43 71 67 125 24 55 54
116 67 136 57 85 94 134 111 146 31 23 65 104 72 174 7 64 6 69 -23 112 -21
30 -46 52 -75 64 -24 11 -47 25 -51 31 -4 7 -18 16 -31 21 -31 12 -31 28 1 40
14 5 25 15 25 21 0 8 -35 10 -127 5 -71 -3 -190 -8 -265 -12 -148 -7 -159 -3
-119 40 34 39 88 151 95 198 7 44 5 50 -21 73 -44 39 -198 125 -224 125 -16 0
-30 -10 -43 -33z m3 -1978 c36 -36 39 -57 10 -92 -16 -22 -18 -30 -9 -47 6
-12 9 -29 6 -37 -4 -9 -1 -22 5 -29 16 -20 5 -41 -25 -46 -28 -6 -46 7 -46 33
0 27 -39 69 -65 69 -26 0 -36 -18 -28 -49 11 -43 -49 -72 -62 -31 -7 21 4 238
12 253 2 4 42 7 88 7 80 0 85 -1 114 -31z"/>
<path d="M4575 1340 c-3 -6 -3 -19 0 -30 5 -15 15 -20 40 -20 25 0 35 5 40 20
9 29 -2 40 -40 40 -19 0 -37 -5 -40 -10z"/>
<path d="M1085 3196 c-27 -13 -88 -47 -134 -75 -46 -28 -90 -51 -98 -51 -18 0
-17 -29 3 -76 15 -36 15 -39 -2 -49 -9 -5 -26 -18 -36 -27 -10 -10 -26 -18
-37 -18 -12 0 -23 -12 -31 -32 -18 -45 -51 -100 -57 -94 -3 3 3 28 12 56 19
57 15 72 -13 47 -10 -10 -22 -17 -26 -17 -10 0 -55 -53 -56 -65 0 -18 -194
-393 -250 -485 -43 -70 -45 -96 -14 -125 30 -27 159 -107 241 -149 83 -41 87
-40 141 72 27 53 56 111 65 127 23 41 92 194 102 225 14 43 74 168 84 174 13
9 33 -30 87 -172 25 -65 85 -216 134 -337 86 -214 302 -753 362 -905 60 -154
122 -296 144 -330 12 -19 25 -53 29 -75 9 -52 37 -104 74 -139 43 -38 65 -29
58 23 -4 29 -2 38 8 35 7 -3 15 5 18 17 6 22 7 22 26 5 30 -28 39 -13 28 48
-13 69 -6 86 33 86 39 0 76 24 84 56 9 35 -21 120 -149 419 -70 164 -76 177
-101 212 -41 54 -68 141 -58 182 7 27 14 36 31 36 24 0 46 25 93 110 18 33 44
74 58 90 27 33 87 156 163 335 57 136 60 143 69 134 8 -9 2 -78 -40 -515 -30
-311 -27 -362 24 -399 38 -28 98 -60 112 -60 14 0 59 46 161 165 34 39 78 88
98 110 21 22 58 65 84 95 25 30 51 60 56 66 59 65 132 149 138 160 12 21 -13
26 -64 15 -28 -6 -46 -6 -50 0 -9 16 -38 0 -142 -78 -54 -40 -108 -73 -119
-73 -23 0 -23 5 6 177 9 51 20 121 26 155 5 35 18 117 30 183 12 66 25 149 30
185 5 36 16 103 24 150 14 76 20 139 14 140 -2 1 -72 3 -156 7 -107 4 -156 2
-166 -6 -14 -11 -29 -129 -44 -331 -6 -79 -10 -95 -25 -98 -9 -2 -59 13 -110
32 -50 20 -102 36 -114 36 -18 0 -28 -17 -63 -107 -23 -60 -53 -137 -67 -173
-14 -36 -31 -78 -38 -95 -7 -16 -25 -61 -39 -100 -34 -87 -40 -98 -53 -102
-14 -5 -77 118 -99 193 -9 33 -31 91 -49 129 -34 74 -91 214 -124 305 -11 30
-32 87 -48 125 -16 39 -38 102 -48 140 -10 39 -29 87 -43 107 -13 21 -36 77
-52 125 -25 83 -29 88 -56 91 -16 1 -51 -9 -79 -22z m770 -2407 c6 -19 0 -38
-9 -28 -10 12 -16 49 -7 49 5 0 13 -9 16 -21z"/>
<path d="M1771 2986 c-105 -106 -123 -127 -112 -140 7 -8 12 -28 11 -43 -3
-45 -1 -53 15 -53 8 0 21 -15 29 -32 12 -28 12 -36 -1 -56 -13 -22 -13 -22 12
-16 15 4 25 2 25 -5 0 -22 16 -10 95 69 44 44 103 98 131 121 65 50 108 110
99 138 -8 26 -141 141 -163 141 -10 0 -73 -56 -141 -124z"/>
<path d="M3143 3088 c-13 -17 -27 -72 -98 -402 -14 -66 -28 -123 -30 -127 -8
-13 -376 -89 -430 -89 -27 0 -28 0 -21 -52 7 -49 22 -114 48 -195 12 -41 20
-41 168 -3 129 34 148 36 156 16 3 -8 -8 -76 -24 -153 -36 -168 -50 -241 -58
-313 -6 -54 -5 -56 40 -115 26 -33 55 -64 66 -69 14 -6 41 4 107 39 48 26 135
72 193 103 150 79 266 148 291 173 48 48 41 2 -41 -244 -45 -135 -87 -253 -94
-262 -10 -14 -17 -15 -34 -6 -24 13 -158 15 -166 2 -10 -16 -9 -232 1 -242 19
-19 43 2 43 36 0 38 19 58 52 53 16 -2 29 -17 45 -50 34 -72 72 -56 58 24 -7
41 3 56 43 67 30 9 32 8 32 -16 0 -16 4 -23 13 -19 6 3 19 9 29 12 9 3 31 40
49 82 43 102 53 111 44 40 -5 -47 -4 -58 8 -58 7 0 19 -10 24 -23 8 -17 28
-29 72 -42 52 -16 61 -22 59 -39 -4 -27 -68 -35 -88 -12 -18 22 -50 20 -50 -2
0 -57 115 -85 164 -40 9 7 22 19 31 26 18 15 20 52 3 74 -7 8 -28 20 -45 26
-80 29 -93 35 -93 47 0 7 7 18 15 25 11 9 22 7 54 -11 44 -24 75 -21 64 8 -14
39 -44 55 -109 61 -73 5 -72 3 -34 92 11 25 45 110 76 190 164 424 424 1059
468 1145 10 19 12 33 5 41 -17 21 -211 88 -256 88 l-43 1 -64 -190 c-35 -104
-103 -311 -152 -460 -93 -286 -126 -370 -149 -379 -17 -6 -27 7 -19 27 4 11
-7 16 -45 21 -43 6 -51 10 -51 28 0 18 -4 20 -35 15 -19 -3 -97 -35 -174 -71
-153 -73 -174 -78 -166 -43 3 12 19 83 36 157 17 74 36 154 41 178 11 49 18
53 142 83 89 22 105 16 83 -27 -8 -16 -17 -42 -21 -59 -4 -16 -9 -39 -13 -49
-4 -15 -1 -18 16 -13 16 4 21 1 21 -15 0 -19 4 -20 43 -14 29 5 48 15 61 33
11 14 26 30 34 37 94 73 242 310 242 386 0 27 -3 30 -34 30 -19 0 -38 5 -41
10 -10 16 -97 12 -198 -9 -133 -28 -229 -43 -235 -37 -11 12 -1 76 31 203 48
185 36 225 -78 262 -76 25 -70 24 -82 9z m221 -1750 c18 -29 -4 -53 -51 -56
-35 -3 -41 0 -46 19 -10 38 10 61 50 57 21 -2 41 -10 47 -20z"/>
<path d="M1396 2911 c-4 -7 -5 -15 -2 -18 9 -9 19 4 14 18 -4 11 -6 11 -12 0z"/>
<path d="M4099 2404 c-6 -16 -15 -51 -19 -79 -9 -50 -24 -126 -41 -200 -5 -22
-13 -62 -19 -90 -5 -27 -16 -79 -25 -115 -8 -36 -14 -91 -15 -123 0 -50 4 -64
33 -102 17 -24 40 -56 50 -70 10 -14 25 -25 33 -25 18 0 314 202 603 413 50
36 65 61 34 55 -30 -5 -53 20 -53 58 0 40 -3 41 -31 13 -11 -11 -27 -18 -35
-15 -18 7 -45 -5 -178 -81 -113 -65 -144 -79 -153 -70 -5 6 21 121 39 166 22
59 46 201 34 209 -13 8 -190 71 -223 79 -18 4 -25 -1 -34 -23z"/>
<path d="M2348 1393 c-19 -5 -35 -82 -23 -110 5 -10 7 -43 6 -74 -3 -75 7 -83
109 -77 45 3 86 10 93 17 12 12 19 166 9 204 -3 11 -20 25 -38 33 -31 13 -118
17 -156 7z m116 -39 c26 -10 20 -51 -8 -58 -32 -8 -56 2 -56 23 0 33 29 48 64
35z m0 -114 c52 -20 16 -80 -40 -66 -29 8 -33 50 -6 65 21 13 16 13 46 1z"/>
<path d="M2792 1388 c-14 -14 -17 -234 -3 -243 18 -10 156 -13 175 -3 28 15 3
26 -62 27 -61 0 -73 10 -63 50 6 23 13 26 54 29 33 2 47 7 47 18 0 10 -13 14
-50 14 -50 0 -50 0 -50 33 0 46 15 57 83 57 42 0 58 3 55 13 -6 17 -169 22
-186 5z"/>
<path d="M4087 1394 c-4 -4 -7 -61 -7 -126 0 -137 -4 -132 104 -132 47 -1 70
3 73 12 3 9 -11 12 -54 12 -63 0 -83 11 -83 46 0 27 22 46 52 44 43 -4 58 0
58 14 0 11 -15 16 -52 18 -50 3 -53 5 -56 32 -5 39 6 47 74 51 40 3 59 8 59
17 0 9 -22 14 -80 16 -45 1 -84 0 -88 -4z"/>
<path d="M4955 1388 c-9 -32 -18 -95 -15 -118 1 -14 4 -34 5 -45 1 -11 3 -35
4 -53 1 -31 3 -33 34 -30 30 3 32 6 37 48 3 31 10 46 21 48 21 4 59 -44 59
-74 0 -21 5 -24 34 -24 40 0 52 12 31 30 -8 7 -15 18 -15 24 0 6 -9 22 -20 36
-21 27 -26 65 -10 75 6 3 10 14 10 24 0 10 10 25 23 34 17 12 19 18 10 27 -19
21 -56 3 -93 -45 -19 -25 -37 -45 -40 -45 -3 0 -13 12 -23 26 -18 23 -18 27
-3 43 16 17 16 19 1 25 -26 10 -45 7 -50 -6z"/>
<path d="M4747 993 c-10 -10 -8 -63 2 -63 9 0 21 33 21 58 0 13 -13 16 -23 5z"/>
</g>
</svg>
